<svg width="431" height="431" viewBox="0 0 431 431" fill="none" xmlns="http://www.w3.org/2000/svg">
<circle cx="215.327" cy="215.327" r="200.327" stroke="white" stroke-width="30"/>
<path d="M298.115 136.758C271.659 135.402 248.143 146.707 232.767 165.362C232.767 165.362 215.469 187.748 215.469 187.634C215.469 187.634 193.649 216.238 193.762 216.238L174.995 240.885L173.525 242.807C162.784 257.165 143.79 265.192 123.779 259.313C116.288 257.051 109.529 252.848 104.188 247.129C98.8463 241.41 95.1129 234.38 93.3666 226.753C91.808 220.146 91.7624 213.273 93.2331 206.646C94.7039 200.019 97.653 193.81 101.86 188.483C106.067 183.156 111.424 178.849 117.53 175.883C123.635 172.917 130.332 171.369 137.12 171.354C150.8 171.354 160.975 177.12 167.985 183.225C175.447 189.783 186.866 188.765 192.971 180.851C198.285 173.954 197.606 164.005 191.275 158.126C155.549 125.339 87.9398 132.801 66.3457 178.364C38.3073 237.493 81.0433 295.831 137.12 295.831C161.767 295.831 183.813 284.864 198.398 267.227L203.259 260.896C203.259 260.896 215.582 244.729 215.582 244.842C215.582 244.842 237.403 216.238 237.29 216.238L256.396 191.252L257.753 189.556C267.589 176.216 284.548 168.641 303.202 172.259C319.709 175.537 333.389 188.426 337.459 204.819C344.921 234.554 322.535 261.348 293.932 261.348C280.478 261.348 270.303 255.582 263.293 249.364C261.523 247.812 259.452 246.64 257.211 245.921C254.969 245.202 252.603 244.951 250.26 245.184C247.917 245.418 245.647 246.13 243.591 247.277C241.535 248.423 239.736 249.981 238.307 251.851C232.767 259.087 233.785 269.149 240.568 275.254C251.083 284.638 269.059 296.057 293.932 296.057C341.416 296.057 379.291 254.339 372.846 205.611C367.872 168.075 335.763 138.68 298.115 136.758Z" fill="white"/>
</svg>
